<svg width="130" height="34" xmlns="http://www.w3.org/2000/svg">

    <g>
        <title>background</title>
        <rect fill="none" id="canvas_background" height="602" width="802" y="-1" x="-1" />
    </g>
    <g>
        <title>Logo</title>
        <g id="svg_1" fill-rule="evenodd" fill="none">
            <path id="svg_2"
                d="m80.272504,-0.000011c-14.786,0 -26.947,11.078 -28.236,25.157c2.457,-3.374 5.466,-6.621 9.223,-10.354a0.738,0.738 0 0 1 1.029,-0.01c0.286,0.273 0.29,0.722 0.01,1.001a169.806,169.806 0 0 0 -2.688,2.732l-0.175,0.184c-4.643,4.842 -7.962,9.057 -10.372,14.291a0.702,0.702 0 0 0 0.365,0.937a0.74,0.74 0 0 0 0.963,-0.356a38.585,38.585 0 0 1 2.974,-5.273c10.159,-0.253 19.406,-5.757 24.252,-14.515a0.696,0.696 0 0 0 -0.016,-0.7a0.737,0.737 0 0 0 -0.625,-0.344l-2.694,0l4.83,-2.689a0.714,0.714 0 0 0 0.328,-0.384a26.88,26.88 0 0 0 1.559,-8.969a0.718,0.718 0 0 0 -0.727,-0.708z"
                fill="#47D5FE" />
        </g>
    </g>
</svg>